<svg xmlns="http://www.w3.org/2000/svg" xmlns:xlink="http://www.w3.org/1999/xlink" viewBox="0 0 89.125 96.167" fill="#fff" fill-rule="evenodd" stroke="#000" stroke-linecap="round" stroke-linejoin="round"><use xlink:href="#A" x="1.042" y="2.083"/><symbol id="A" overflow="visible"><g stroke="none" fill-rule="nonzero"><path d="M69.352 89.549H1.415c-.77.01-1.403-.605-1.415-1.375v-66c.011-.77.645-1.385 1.415-1.375h67.938c.77-.01 1.403.605 1.415 1.375v66c-.011.77-.644 1.385-1.415 1.375z" fill="#b1cc33"/><use xlink:href="#C"/></g><g fill="none" stroke-width="4.167"><path d="M68.956 26.63v63.492c0 .759-.616 1.375-1.375 1.375h-66c-.759 0-1.375-.616-1.375-1.375v-66c0-.365.145-.714.403-.972s.608-.403.972-.403h43.021"/><use xlink:href="#C"/></g></symbol><defs ><path id="C" d="M22.415 43.08c-3.854-5.417-12.875-.208-9 5.25 6.667 9.375 12.229 19.271 16.458 29.958 1.75 4.375 8.813 5.521 10.063 0 5.896-26.25 17.083-56.604 43.083-68.75 6.042-2.833.792-11.812-5.25-9C53.957 11.685 40.936 36.705 33.54 61.476c-3.25-6.354-6.938-12.5-11.146-18.396z"/></defs></svg>